<?xml version="1.0" encoding="UTF-8"?>
<!DOCTYPE svg
  PUBLIC '-//W3C//DTD SVG 1.1//EN'
  'http://www.w3.org/Graphics/SVG/1.1/DTD/svg11.dtd'>
<svg version="1.1" xmlns="http://www.w3.org/2000/svg" width="41.080mm" height="19.117mm">
    <!--Autogenerated with python-barcode 0.15.1-->
    <g id="barcode_group">
        <rect width="100%" height="100%" style="fill:white"/>
        <rect x="2.540mm" y="1.000mm" width="0.800mm" height="10.000mm" style="fill:black;"/>
        <rect x="3.740mm" y="1.000mm" width="0.400mm" height="10.000mm" style="fill:black;"/>
        <rect x="4.940mm" y="1.000mm" width="1.200mm" height="10.000mm" style="fill:black;"/>
        <rect x="6.940mm" y="1.000mm" width="0.800mm" height="10.000mm" style="fill:black;"/>
        <rect x="8.140mm" y="1.000mm" width="0.800mm" height="10.000mm" style="fill:black;"/>
        <rect x="9.740mm" y="1.000mm" width="0.800mm" height="10.000mm" style="fill:black;"/>
        <rect x="11.340mm" y="1.000mm" width="0.800mm" height="10.000mm" style="fill:black;"/>
        <rect x="12.540mm" y="1.000mm" width="0.800mm" height="10.000mm" style="fill:black;"/>
        <rect x="14.140mm" y="1.000mm" width="0.800mm" height="10.000mm" style="fill:black;"/>
        <rect x="15.740mm" y="1.000mm" width="0.800mm" height="10.000mm" style="fill:black;"/>
        <rect x="16.940mm" y="1.000mm" width="0.800mm" height="10.000mm" style="fill:black;"/>
        <rect x="18.540mm" y="1.000mm" width="0.800mm" height="10.000mm" style="fill:black;"/>
        <rect x="20.140mm" y="1.000mm" width="0.400mm" height="10.000mm" style="fill:black;"/>
        <rect x="20.940mm" y="1.000mm" width="1.600mm" height="10.000mm" style="fill:black;"/>
        <rect x="22.940mm" y="1.000mm" width="1.200mm" height="10.000mm" style="fill:black;"/>
        <rect x="24.540mm" y="1.000mm" width="0.400mm" height="10.000mm" style="fill:black;"/>
        <rect x="25.740mm" y="1.000mm" width="1.200mm" height="10.000mm" style="fill:black;"/>
        <rect x="27.740mm" y="1.000mm" width="0.800mm" height="10.000mm" style="fill:black;"/>
        <rect x="28.940mm" y="1.000mm" width="0.800mm" height="10.000mm" style="fill:black;"/>
        <rect x="31.340mm" y="1.000mm" width="0.400mm" height="10.000mm" style="fill:black;"/>
        <rect x="32.540mm" y="1.000mm" width="0.400mm" height="10.000mm" style="fill:black;"/>
        <rect x="33.340mm" y="1.000mm" width="0.800mm" height="10.000mm" style="fill:black;"/>
        <rect x="35.340mm" y="1.000mm" width="1.200mm" height="10.000mm" style="fill:black;"/>
        <rect x="36.940mm" y="1.000mm" width="0.400mm" height="10.000mm" style="fill:black;"/>
        <rect x="37.740mm" y="1.000mm" width="0.800mm" height="10.000mm" style="fill:black;"/>
        <text x="20.540mm" y="16.000mm" style="fill:black;font-size:12pt;text-anchor:middle;">0000001</text>
    </g>
</svg>
